<svg width="694" height="507" viewBox="0 0 694 507" fill="none" xmlns="http://www.w3.org/2000/svg">
<path d="M690.448 3H47.53V37.2048H690.448V3Z" stroke="#6FD4FF" stroke-width="5.27385" stroke-miterlimit="2" stroke-linejoin="round"/>
<path d="M71.8246 20.9619C71.8246 23.4165 69.9459 25.4058 67.6286 25.4058C65.3126 25.4058 63.4339 23.4165 63.4339 20.9619C63.4339 18.5074 65.3126 16.5181 67.6286 16.5181C69.9459 16.5181 71.8246 18.5074 71.8246 20.9619Z" stroke="#6FD4FF" stroke-width="5.27385" stroke-miterlimit="2" stroke-linejoin="round"/>
<path d="M87.7282 20.9619C87.7282 23.4165 85.8495 25.4058 83.5335 25.4058C81.2163 25.4058 79.3375 23.4165 79.3375 20.9619C79.3375 18.5074 81.2163 16.5181 83.5335 16.5181C85.8495 16.5181 87.7282 18.5074 87.7282 20.9619Z" stroke="#6FD4FF" stroke-width="5.27385" stroke-miterlimit="2" stroke-linejoin="round"/>
<path d="M103.631 20.9619C103.631 23.4165 101.753 25.4058 99.4359 25.4058C97.1186 25.4058 95.2411 23.4165 95.2411 20.9619C95.2411 18.5074 97.1186 16.5181 99.4359 16.5181C101.753 16.5181 103.631 18.5074 103.631 20.9619Z" stroke="#6FD4FF" stroke-width="5.27385" stroke-miterlimit="2" stroke-linejoin="round"/>
<path d="M326.541 74.2112C326.541 74.454 312.499 74.651 295.182 74.651C277.859 74.651 263.821 74.454 263.821 74.2112C263.821 73.9684 277.859 73.7714 295.182 73.7714C312.499 73.7714 326.541 73.9684 326.541 74.2112Z" stroke="#6FD4FF" stroke-width="5.27385" stroke-miterlimit="2" stroke-linejoin="round"/>
<path d="M409.239 74.2112C409.239 74.454 395.198 74.651 377.881 74.651C360.559 74.651 346.52 74.454 346.52 74.2112C346.52 73.9684 360.559 73.7714 377.881 73.7714C395.198 73.7714 409.239 73.9684 409.239 74.2112Z" stroke="#6FD4FF" stroke-width="5.27385" stroke-miterlimit="2" stroke-linejoin="round"/>
<path d="M282.186 209.921H109.362C103.319 209.921 98.4211 205.022 98.4211 198.979V180.929C98.4211 174.886 103.319 169.989 109.362 169.989H282.186C288.229 169.989 293.126 174.886 293.126 180.929V198.979C293.126 205.022 288.229 209.921 282.186 209.921Z" stroke="#6FD4FF" stroke-width="5.27385" stroke-miterlimit="2" stroke-linejoin="round"/>
<path d="M47.8236 3.32668C50.7205 3.32541 310.574 3.19321 690.74 3H691.068V3.32668C691.078 142.968 691.09 300.26 691.102 466.068V466.483H690.74C450.198 466.456 227.621 466.433 47.8236 466.414H47.53V466.12C47.7079 185.235 47.8211 5.73674 47.8236 3.32668ZM47.8236 3.32668C47.8249 5.73547 47.938 185.235 48.116 466.12L47.8236 465.829C227.621 465.81 450.198 465.787 690.74 465.762L690.382 466.12V466.068C690.393 300.26 690.404 142.968 690.413 3.32668L690.74 3.65336C310.574 3.46015 50.718 3.32795 47.8236 3.32668Z" stroke="#6FD4FF" stroke-width="5.27385" stroke-miterlimit="2" stroke-linejoin="round"/>
<path d="M123.732 75.4523C123.732 82.9685 117.354 89.061 109.487 89.061C101.618 89.061 95.2411 82.9685 95.2411 75.4523C95.2411 67.9361 101.618 61.8436 109.487 61.8436C117.354 61.8436 123.732 67.9361 123.732 75.4523Z" stroke="#6FD4FF" stroke-width="5.27385" stroke-miterlimit="2" stroke-linejoin="round"/>
<path d="M103.684 240.76H3V310.807H103.684V240.76Z" stroke="#6FD4FF" stroke-width="5.27385" stroke-miterlimit="2" stroke-linejoin="round"/>
<path d="M103.522 240.761C103.628 240.911 81.2078 256.851 53.454 276.361C25.69 295.877 3.10587 311.572 3.00036 311.422C2.89613 311.272 25.3099 295.336 53.0739 275.82C80.8278 256.31 103.418 240.613 103.522 240.761Z" stroke="#6FD4FF" stroke-width="5.27385" stroke-miterlimit="2" stroke-linejoin="round"/>
<path d="M105.226 310.318C105.219 310.327 105.127 310.275 104.951 310.164C104.745 310.028 104.492 309.863 104.182 309.657C103.469 309.17 102.494 308.503 101.26 307.659C98.6921 305.866 95.0566 303.328 90.5848 300.206C81.5687 293.831 69.1892 285.079 55.5131 275.413C41.8764 265.681 29.5351 256.873 20.5469 250.458C16.1272 247.263 12.5337 244.668 9.99654 242.835C8.79406 241.948 7.84198 241.247 7.14795 240.735C6.85177 240.509 6.61153 240.326 6.41578 240.176C6.25434 240.046 6.17426 239.976 6.18062 239.966C6.18697 239.957 6.28104 240.009 6.45645 240.121C6.66237 240.256 6.91533 240.423 7.22548 240.627C7.93859 241.115 8.91354 241.782 10.1478 242.626C12.7155 244.419 16.3496 246.957 20.8215 250.079C29.8376 256.452 42.2184 265.204 55.8983 274.874C69.5286 284.602 81.8687 293.409 90.8556 299.823C95.2765 303.018 98.87 305.615 101.408 307.448C102.612 308.333 103.563 309.035 104.258 309.547C104.553 309.774 104.793 309.958 104.989 310.108C105.153 310.236 105.233 310.308 105.226 310.318Z" stroke="#6FD4FF" stroke-width="5.27385" stroke-miterlimit="2" stroke-linejoin="round"/>
<path d="M354.079 503.145C354.079 503.145 354.06 502.209 354.051 500.411C354.045 498.608 354.036 495.943 354.023 492.455C354.008 485.469 353.987 475.196 353.96 461.999C353.927 435.624 353.881 397.576 353.824 350.827L354.078 351.082C282.388 351.101 188.496 351.129 86.0492 351.158H86.0289L86.3594 350.827C86.3518 404.711 86.3441 456.224 86.3378 503.145L86.0289 502.835C164.524 502.896 231.497 502.948 278.857 502.987C302.554 503.022 321.344 503.05 334.218 503.07C340.655 503.087 345.61 503.1 348.967 503.107C350.638 503.116 351.911 503.123 352.775 503.126C353.632 503.133 354.079 503.145 354.079 503.145ZM354.079 503.145C354.079 503.145 353.657 503.158 352.812 503.163C351.957 503.167 350.696 503.173 349.039 503.182C345.696 503.191 340.762 503.204 334.353 503.219C321.494 503.239 302.73 503.267 279.061 503.304C231.652 503.34 164.608 503.392 86.0289 503.453L85.72 503.454V503.145C85.7136 456.224 85.706 404.711 85.6984 350.827V350.496H86.0492C188.496 350.525 282.388 350.553 354.078 350.572H354.334L354.332 350.827C354.276 397.642 354.229 435.745 354.198 462.155C354.17 475.328 354.148 485.582 354.133 492.554C354.121 496.022 354.112 498.671 354.106 500.463C354.097 502.245 354.079 503.145 354.079 503.145Z" stroke="#6FD4FF" stroke-width="5.27385" stroke-miterlimit="2" stroke-linejoin="round"/>
<path d="M180.36 410.134V437.914H175.201V426.008H160.836V437.914H155.676V410.134H160.836V421.604H175.201V410.134H180.36Z" fill="#6FD4FF"/>
<path d="M193.508 414.499H184.301V410.134H207.874V414.499H198.666V437.914H193.508V414.499Z" fill="#6FD4FF"/>
<path d="M238.446 437.914L238.406 419.5L229.28 434.738H226.978L217.85 419.738V437.914H212.929V410.134H217.176L228.208 428.548L239.042 410.134H243.287L243.327 437.914H238.446Z" fill="#6FD4FF"/>
<path d="M251.098 410.134H256.256V433.547H270.781V437.914H251.098V410.134Z" fill="#6FD4FF"/>
</svg>
