<svg width="24" height="24" viewBox="0 0 24 24" fill="none" xmlns="http://www.w3.org/2000/svg">
<path d="M21.5868 11.4864C21.4884 9.5975 20.8315 7.78033 19.6992 6.2652C19.3542 6.63674 18.9854 6.98547 18.5952 7.3092C17.3963 8.30503 16.0566 9.11784 14.6196 9.7212C14.82 10.1412 15.0036 10.548 15.1656 10.932V10.9356C15.198 11.0088 15.2256 11.0772 15.2784 11.2104L15.2988 11.2584C17.1144 11.0544 19.0296 11.13 20.886 11.382C21.1332 11.4144 21.366 11.4492 21.5868 11.4864ZM10.3248 2.5464C11.4943 4.19419 12.5727 5.90475 13.5552 7.6704C15.0228 7.092 16.236 6.3624 17.2128 5.55C17.6088 5.2212 17.9256 4.9116 18.168 4.644C16.4412 3.19166 14.2564 2.3968 12 2.4C11.4288 2.4 10.8696 2.4504 10.3248 2.5452V2.5464ZM2.7036 9.5964C3.52107 9.57577 4.33757 9.52654 5.1516 9.4488C7.11917 9.27281 9.06993 8.943 10.986 8.4624C9.98462 6.72265 8.90347 5.03005 7.746 3.39C6.50966 4.00248 5.41951 4.87369 4.54949 5.94455C3.67948 7.0154 3.04994 8.26085 2.7036 9.5964ZM4.5396 18.042C5.10234 17.229 5.73473 16.4666 6.4296 15.7632C8.1744 13.9752 10.2336 12.5832 12.6168 11.8152L12.6912 11.7936C12.4932 11.3568 12.3072 10.9668 12.12 10.5996C9.9168 11.2416 7.596 11.6424 5.2836 11.85C4.1556 11.952 3.144 11.9964 2.4 12.0036C2.39778 14.2027 3.15267 16.3354 4.5396 18.042ZM15.6048 20.898C15.142 18.5643 14.487 16.2729 13.6464 14.0472C11.2464 14.9196 9.3312 16.1952 7.8516 17.7168C7.25448 18.3197 6.72458 18.9856 6.2712 19.7028C7.92577 20.9373 9.93561 21.6029 12 21.6C13.2359 21.6018 14.4604 21.3642 15.606 20.9004L15.6048 20.898ZM17.8536 19.608C19.7271 18.1677 21.0034 16.0869 21.438 13.764C21.03 13.662 20.5128 13.56 19.944 13.4808C18.6794 13.2987 17.3961 13.2854 16.128 13.4412C16.842 15.4558 17.4185 17.5154 17.8536 19.608ZM12 24C5.3724 24 0 18.6276 0 12C0 5.3724 5.3724 0 12 0C18.6276 0 24 5.3724 24 12C24 18.6276 18.6276 24 12 24Z" fill="white"/>
</svg>
